# xmcd CD database file
# Copyright (C) 1993-1998 Ti Kan
# 
# Track frame offsets:
#     150
#     15078
#     29703
#     43595
#     58138
#     72820
#     86653
#     100778
#     115238
#     128703
#     143868
#     157610
#     170898
#     185508
#     198763
#     209133
#     224305
#     236240
#     249345
#     264623
# 
# Disc length: 3660 seconds
# 
# Revision: 1
# Processed by: cddbd v1.4b41PL1 Copyright (c) Steve Scherf et al.
# Submitted via: DiscPlay 4.0.4
# 
DISCID=210e4a14
DTITLE=Billie Holiday - Trav'lin Light, Trav'lin' All Alone
DYEAR=1900
DGENRE=
TTITLE0=Trav'lin Light
TTITLE1=Solitude
TTITLE2=Jim
TTITLE3=I Cried For You
TTITLE4=Fine and Mellow
TTITLE5=Wherever You Are
TTITLE6=I Wished on the Moon
TTITLE7=Easy to Love
TTITLE8=Mandy is Two
TTITLE9=It's Like Reaching for the Moon
TTITLE10=It's a Sin to Tell a Lie
TTITLE11=God Bless the Child
TTITLE12=If You Were Mine
TTITLE13=Let's Do It
TTITLE14=Romance in the Dark
TTITLE15=Love Me or Leave Me
TTITLE16=Ghost of Yesterday
TTITLE17=You Go to My Head
TTITLE18=Yesterdays
TTITLE19=Travlin All Alone
EXTD=
EXTT0=(with Paul WHiteman and His Orchestra]\n
EXTT1=
EXTT2=
EXTT3=
EXTT4=
EXTT5=
EXTT6=
EXTT7=
EXTT8=
EXTT9=
EXTT10=
EXTT11=(with Eddie Heywood and His Orchestra]\n
EXTT12=
EXTT13=
EXTT14=
EXTT15=
EXTT16=
EXTT17=
EXTT18=
EXTT19=
PLAYORDER=
